
<svg width="1440" height="800" viewBox="0 0 1440 800" fill="none" xmlns="http://www.w3.org/2000/svg">
  <g opacity="0.2">
    <path d="M1440 0H0V800H1440V0Z" fill="white"/>
    <path d="M1285.52 391.614C1246.51 420.046 1200.16 436.186 1152.47 438.585C1104.78 440.983 1057.2 429.541 1016.05 405.743C974.901 381.944 941.909 346.867 921.151 304.821C900.394 262.775 892.906 215.852 899.619 170C781.704 170 681.943 269.761 681.943 387.676C681.943 505.592 781.704 605.352 899.619 605.352C1017.53 605.352 1117.29 505.592 1117.29 387.676" stroke="#518B57" stroke-width="2" stroke-linecap="round" stroke-linejoin="round"/>
    <path d="M429.352 605.352C507.647 605.352 570.914 542.085 570.914 463.79C570.914 385.495 507.647 322.229 429.352 322.229C351.057 322.229 287.79 385.495 287.79 463.79C287.79 542.085 351.057 605.352 429.352 605.352Z" stroke="#518B57" stroke-width="2" stroke-linecap="round" stroke-linejoin="round"/>
    <path d="M175.533 211.562C138.713 211.562 108.981 241.294 108.981 278.114C108.981 314.934 138.713 344.667 175.533 344.667C212.354 344.667 242.086 314.934 242.086 278.114C242.086 241.294 212.354 211.562 175.533 211.562Z" stroke="#E58529" stroke-width="2" stroke-linecap="round" stroke-linejoin="round"/>
    <path d="M749.486 214.438C775.742 214.438 797.086 193.094 797.086 166.838C797.086 140.581 775.742 119.238 749.486 119.238C723.229 119.238 701.886 140.581 701.886 166.838C701.886 193.094 723.229 214.438 749.486 214.438Z" stroke="#E58529" stroke-width="2" stroke-linecap="round" stroke-linejoin="round"/>
    <path d="M1097.35 605.352C1123.6 605.352 1144.95 584.008 1144.95 557.752C1144.95 531.496 1123.6 510.152 1097.35 510.152C1071.09 510.152 1049.75 531.496 1049.75 557.752C1049.75 584.008 1071.09 605.352 1097.35 605.352Z" stroke="#E58529" stroke-width="2" stroke-linecap="round" stroke-linejoin="round"/>
    <path d="M320.229 175.467C320.229 175.467 366.76 131.943 408.495 156.943C450.229 181.943 412.36 245.838 412.36 245.838" stroke="#518B57" stroke-width="2" stroke-linecap="round" stroke-linejoin="round"/>
    <path d="M1212.86 487.61C1212.86 487.61 1171.12 444.086 1129.39 469.086C1087.65 494.086 1125.52 557.981 1125.52 557.981" stroke="#518B57" stroke-width="2" stroke-linecap="round" stroke-linejoin="round"/>
  </g>
</svg>
